<?xml version="1.0" encoding="UTF-8"?>
<svg version="1.1" xmlns="http://www.w3.org/2000/svg" width="1673" height="2000">
<path d="M0 0 C3.3664764 0.01710836 6.73224149 0.00689751 10.09869385 -0.0103302 C61.00539589 -0.23046687 113.62978612 9.70412173 159.47485352 32.39111328 C160.10552734 32.70290527 160.73620117 33.01469727 161.38598633 33.3359375 C174.41503038 39.87185369 186.14847146 48.27743513 197.47485352 57.39111328 C198.28212891 58.03959229 198.28212891 58.03959229 199.10571289 58.70117188 C213.01469529 69.98871822 225.83379302 82.7894718 237.47485352 96.39111328 C238.4598517 97.52061193 239.44550236 98.64954201 240.43188477 99.77783203 C247.07627738 107.43624215 253.42636069 115.25238103 259.47485352 123.39111328 C259.96034668 124.03999512 260.44583984 124.68887695 260.94604492 125.35742188 C274.94077556 144.12739646 287.10171909 163.9448195 298.47485352 184.39111328 C298.99354004 185.3148877 299.51222656 186.23866211 300.04663086 187.19042969 C305.83419476 197.50677562 311.35252904 207.79290482 315.91625977 218.71142578 C317.42132187 222.26473029 319.04994926 225.72769433 320.72485352 229.20361328 C331.90760033 252.87951086 340.58212575 277.75591987 349.69024658 302.27893066 C362.51603817 336.80630084 375.48688375 371.31559784 389.47485352 405.39111328 C389.769646 406.11089355 390.06443848 406.83067383 390.36816406 407.57226562 C399.36900079 429.53589576 408.71193344 451.22534649 419.47485352 472.39111328 C420.20768555 473.84179199 420.20768555 473.84179199 420.95532227 475.32177734 C441.32793006 515.27162399 470.63878175 554.83292017 505.47485352 583.39111328 C505.964375 583.79974609 506.45389648 584.20837891 506.95825195 584.62939453 C551.93248555 622.08594099 606.39802717 646.23820727 665.86602783 641.18804932 C676.62833102 640.11624793 687.33835946 638.56739453 698.04125977 637.02392578 C704.1566659 636.14407766 710.28390738 635.36198557 716.41235352 634.57861328 C718.21323146 634.34367618 720.01402586 634.10809693 721.81469727 633.87158203 C723.02254883 633.71302734 724.23040039 633.55447266 725.47485352 633.39111328 C725.80485352 634.05111328 726.13485352 634.71111328 726.47485352 635.39111328 C682.33757179 672.04221295 621.06908413 685.57670256 564.90551758 680.62109375 C544.6277823 678.56044047 524.72355557 674.09783724 505.47485352 667.39111328 C504.67225098 667.1157373 503.86964844 666.84036133 503.04272461 666.55664062 C459.27464945 651.45041144 418.00926163 629.30699224 383.92016602 597.65283203 C381.80948912 595.70062448 379.66257795 593.8180505 377.47485352 591.95361328 C369.53937173 585.0446928 362.26717719 577.41579947 355.47485352 569.39111328 C354.27989258 568.02986328 354.27989258 568.02986328 353.06079102 566.64111328 C334.58637528 545.45666377 319.18757086 521.22856356 306.22485352 496.32861328 C282.65315208 451.13324127 253.87665481 407.52950477 222.47485352 367.39111328 C221.58265936 366.24027861 220.69073988 365.08923096 219.79907227 363.93798828 C214.81743076 357.52783985 209.72682968 351.23440703 204.44848633 345.06591797 C201.66071597 341.80725382 198.95623975 338.49874436 196.28735352 335.14111328 C191.58589181 329.35142897 186.47043012 323.9718228 181.32177734 318.57958984 C177.46668046 314.53860779 173.7268055 310.43818978 170.11376953 306.1784668 C167.86536009 303.72641771 165.37011108 301.67133792 162.76000977 299.61767578 C162.3359082 299.21291016 161.91180664 298.80814453 161.47485352 298.39111328 C161.47485352 297.73111328 161.47485352 297.07111328 161.47485352 296.39111328 C160.87801758 296.12427734 160.28118164 295.85744141 159.66625977 295.58251953 C157.42911027 294.36624396 156.13065285 293.18754069 154.41235352 291.32861328 C149.78546961 286.57429401 144.65348176 282.52469701 139.47485352 278.39111328 C138.49258789 277.58029297 137.51032227 276.76947266 136.49829102 275.93408203 C120.15761846 262.57830905 102.18706509 251.11416879 83.47485352 241.39111328 C82.81114746 241.04145508 82.14744141 240.69179688 81.46362305 240.33154297 C-5.20052239 194.83553156 -100.46165555 201.92494714 -243.49902344 231.13256836 C-245.84522657 231.87315606 -248.18604332 232.62841556 -250.52514648 233.39111328 C-251.30519043 233.64296387 -252.08523438 233.89481445 -252.88891602 234.15429688 C-300.06012836 249.54396513 -343.11192054 273.86239183 -380.52514648 306.39111328 C-381.22639648 306.99181641 -381.92764648 307.59251953 -382.65014648 308.21142578 C-389.09299179 313.76837986 -395.29056995 319.60322135 -401.52514648 325.39111328 C-403.26188801 321.26899159 -401.62725406 317.77587157 -400.24389648 313.79345703 C-399.9951326 313.05132965 -399.74636871 312.30920227 -399.49006653 311.54458618 C-398.6791331 309.135484 -397.85280351 306.73201629 -397.02514648 304.32861328 C-396.46235777 302.67311399 -395.90010282 301.01743315 -395.33837891 299.36157227 C-393.75145494 294.69863806 -392.14269641 290.04350027 -390.52514648 285.39111328 C-390.15728027 284.33053711 -389.78941406 283.26996094 -389.41040039 282.17724609 C-372.93380356 235.07896771 -349.13137749 190.07069343 -317.52514648 151.39111328 C-316.88512695 150.59447266 -316.88512695 150.59447266 -316.23217773 149.78173828 C-308.21668257 139.86466919 -299.21648851 130.89886832 -290.21264648 121.89111328 C-289.29239182 120.9693631 -289.29239182 120.9693631 -288.35354614 120.0289917 C-281.92605618 113.60268198 -275.51210009 107.21561731 -268.52514648 101.39111328 C-267.86812744 100.83794434 -267.2111084 100.28477539 -266.53417969 99.71484375 C-245.09632629 81.76367038 -222.86790152 65.22183228 -198.52514648 51.39111328 C-197.04401367 50.54782471 -197.04401367 50.54782471 -195.53295898 49.6875 C-179.65235925 40.72001047 -163.48252905 33.0907808 -146.52514648 26.39111328 C-145.67404297 26.04999512 -144.82293945 25.70887695 -143.94604492 25.35742188 C-98.79325969 7.37907256 -48.38581947 -0.24798868 0 0 Z " fill="#FFD84F" transform="translate(946.525146484375,309.60888671875)"/>
<path d="M0 0 C1.10722412 0.78479736 1.10722412 0.78479736 2.23681641 1.58544922 C13.34755943 9.49560426 23.90956615 17.82517959 34 27 C34.65548828 27.59377441 35.31097656 28.18754883 35.98632812 28.79931641 C49.11407917 40.73621996 49.11407917 40.73621996 54.34765625 47.03515625 C56.40099886 49.47683788 58.57699119 51.78926978 60.75 54.125 C66.53040303 60.48082777 71.81354128 67.15470737 77 74 C77.48807129 74.63695801 77.97614258 75.27391602 78.47900391 75.93017578 C93.2038403 95.24729373 105.22537805 116.3235391 116.54199219 137.76342773 C129.98166872 163.18699447 145.16413703 187.64507855 161.27685547 211.45214844 C162.96318987 213.94557233 164.64014517 216.44510961 166.31640625 218.9453125 C173.04677393 228.93549721 180.10949589 238.59460085 187.51708984 248.09228516 C188.88280159 249.84922813 190.23570232 251.61490155 191.58203125 253.38671875 C201.92728594 266.9742665 212.80385468 280.10773193 224 293 C224.65613281 293.75796875 225.31226563 294.5159375 225.98828125 295.296875 C242.07595704 314.25902254 242.07595704 314.25902254 260.046875 331.35546875 C262.42782867 333.36023174 264.66806719 335.49485872 266.9375 337.625 C274.23089626 344.26450557 282.08183385 350.13180436 290 356 C290.66209473 356.49757813 291.32418945 356.99515625 292.00634766 357.5078125 C348.32688176 399.68829761 418.55058151 419.28455052 488.375 419.1875 C489.49701309 419.18709213 489.49701309 419.18709213 490.64169312 419.18667603 C507.14713647 419.15951355 523.55010687 418.30350716 540 417 C541.24523437 416.90348145 542.49046875 416.80696289 543.7734375 416.70751953 C611.47789254 411.25931484 678.20563944 393.67503885 737 359 C737.66757324 358.60635254 738.33514648 358.21270508 739.02294922 357.80712891 C750.14667553 351.18166951 760.60543267 343.70615842 771 336 C772.0528418 335.22172852 772.0528418 335.22172852 773.12695312 334.42773438 C780.64538019 328.86141066 788.07024173 323.19146931 795.39990234 317.37915039 C803.80062047 310.74719307 812.41802329 304.39428673 821 298 C822.09108155 301.27324465 821.97392528 301.82586811 820.92700195 304.93530273 C820.66487915 305.72664612 820.40275635 306.5179895 820.13269043 307.33331299 C819.68995789 308.62045197 819.68995789 308.62045197 819.23828125 309.93359375 C818.93660034 310.83027771 818.63491943 311.72696167 818.32409668 312.65081787 C817.33177484 315.58379102 816.32374267 318.51100025 815.3125 321.4375 C814.97020355 322.43496246 814.6279071 323.43242493 814.27523804 324.46011353 C808.58406922 341.00560941 802.37512906 357.12288332 795 373 C794.24807373 374.63171143 794.24807373 374.63171143 793.48095703 376.29638672 C787.20763609 389.84381529 780.55895149 403.12265987 773 416 C772.57396484 416.72703125 772.14792969 417.4540625 771.70898438 418.203125 C755.81265763 445.14445507 737.14542006 469.97131597 716 493 C715.48566406 493.56477051 714.97132813 494.12954102 714.44140625 494.71142578 C706.65067958 503.25558589 698.69484019 511.36557067 690 519 C689.41605469 519.51804199 688.83210938 520.03608398 688.23046875 520.56982422 C664.3884761 541.70763296 638.2257477 559.71194541 610.17773438 574.82519531 C608.04543318 575.97549053 605.92096608 577.13931854 603.796875 578.3046875 C570.40842998 596.47601513 534.19422843 609.33725187 497 617 C495.74388916 617.27021973 495.74388916 617.27021973 494.46240234 617.54589844 C479.09668089 620.8477224 463.63838703 622.55285047 448 624 C446.88383301 624.11021484 446.88383301 624.11021484 445.74511719 624.22265625 C423.28067298 626.41886816 400.40882476 625.18547604 378 623 C377.00613281 622.90348145 376.01226563 622.80696289 374.98828125 622.70751953 C326.45264249 617.77457494 275.32307118 606.6466972 235 578 C234.3292041 577.52449707 233.6584082 577.04899414 232.96728516 576.55908203 C212.29695949 561.7620754 193.5139949 544.3250555 177 525 C176.154375 524.03578125 175.30875 523.0715625 174.4375 522.078125 C160.61915661 506.0453035 148.40501569 488.81305515 137 471 C136.43990234 470.12601563 135.87980469 469.25203125 135.30273438 468.3515625 C113.80293908 434.52720174 96.58373449 398.28148484 82 361 C81.35562988 359.35402832 81.35562988 359.35402832 80.69824219 357.67480469 C70.84213866 332.35698503 61.68107006 306.73515588 52.92163086 281.01831055 C39.72405505 242.33317429 24.24218324 204.57409943 6 168 C5.484375 166.96472168 4.96875 165.92944336 4.4375 164.86279297 C-13.28979995 129.50629336 -35.33484246 96.24863301 -62 67 C-63.54198029 65.271113 -65.08364901 63.54194806 -66.625 61.8125 C-72.70565745 55.06792328 -79.06117574 48.85632437 -86 43 C-86.50547363 42.56478027 -87.01094727 42.12956055 -87.53173828 41.68115234 C-119.69202474 14.08998542 -156.62796874 -5.28517579 -198 -14.25 C-199.1295813 -14.49520386 -199.1295813 -14.49520386 -200.28198242 -14.74536133 C-223.63531928 -19.5651199 -250.71182153 -18.78913134 -274 -14 C-274.64183228 -13.86944214 -275.28366455 -13.73888428 -275.94494629 -13.60437012 C-286.31668193 -11.49388744 -296.66446013 -9.28087573 -307 -7 C-307.33 -7.66 -307.66 -8.32 -308 -9 C-227.47132643 -67.65793244 -135.39956492 -67.60215463 0 0 Z " fill="#FFD84F" transform="translate(341,1019)"/>
<path d="M0 0 C6.23402373 5.71046315 10.4623402 12.93888075 14.75 20.14453125 C15.1728125 20.85480469 15.595625 21.56507813 16.03125 22.296875 C43.85271933 73.56466324 34.08690117 148.17222973 20.75 202.14453125 C20.51543091 203.09969635 20.51543091 203.09969635 20.27612305 204.07415771 C17.88632019 213.79700968 15.37341644 223.48185037 12.75 233.14453125 C12.49831055 234.08006836 12.24662109 235.01560547 11.98730469 235.97949219 C11.36761062 238.24993069 10.72392465 240.510955 10.0625 242.76953125 C9.56169922 244.49042969 9.56169922 244.49042969 9.05078125 246.24609375 C6.99663363 250.82320346 3.86529095 253.40100395 -0.25 256.14453125 C-1.24257813 255.6134375 -2.23515625 255.08234375 -3.2578125 254.53515625 C-23.49873817 243.9257216 -44.96838066 239.29372047 -67.4296875 246.109375 C-78.40315108 250.01719117 -88.34017303 255.81561801 -96.76171875 263.89453125 C-98.25 265.14453125 -98.25 265.14453125 -100.25 265.14453125 C-100.25 265.80453125 -100.25 266.46453125 -100.25 267.14453125 C-101.87688392 268.87309541 -103.5344669 270.50679082 -105.25 272.14453125 C-106.65010141 273.51518502 -108.04572088 274.89042771 -109.4375 276.26953125 C-110.11167969 276.93210937 -110.78585937 277.5946875 -111.48046875 278.27734375 C-113.42553358 280.22396442 -113.42553358 280.22396442 -115.25 283.14453125 C-119.14075926 281.54868754 -121.61839691 279.03456819 -124.57421875 276.0859375 C-125.07991898 275.58215073 -125.5856192 275.07836395 -126.10664368 274.55931091 C-127.17731656 273.48999713 -128.24547544 272.41816103 -129.3112793 271.34399414 C-130.90791263 269.73681407 -132.51471347 268.14038267 -134.12304688 266.54492188 C-139.8717886 260.80363961 -145.24477523 254.92828245 -150.31713867 248.56762695 C-152.37684726 245.98551154 -154.51942319 243.49641249 -156.69726562 241.0144043 C-163.67344582 233.05641906 -170.0357736 224.70527543 -176.25 216.14453125 C-176.745 215.46519531 -177.24 214.78585937 -177.75 214.0859375 C-208.67169465 171.4880821 -239.97098982 119.41118513 -232.75 64.65625 C-228.00584172 38.69815666 -212.35213779 17.20973343 -190.8984375 2.29907227 C-136.73680195 -34.20570293 -53.34289905 -43.98936988 0 0 Z " fill="#FFFEFE" transform="translate(888.25,640.85546875)"/>
<path d="M0 0 C1.00812744 0.65750244 2.01625488 1.31500488 3.05493164 1.99243164 C12.28072324 8.13856133 19.31848051 13.6580102 22.1875 24.6875 C22.95472026 34.79164613 21.93934132 45.24259064 21.49780273 55.36010742 C21.41586766 57.28826945 21.33937853 59.21667053 21.26831055 61.14526367 C20.52918648 81.16278228 18.05064551 93.46215025 3.375 107.75 C2.60607422 108.51376953 1.83714844 109.27753906 1.04492188 110.06445312 C-3.2027892 114.25481114 -7.54945234 118.28334931 -12.06811523 122.17944336 C-14.23473409 124.05253009 -16.33370486 125.99435831 -18.4375 127.9375 C-24.02772951 132.97466266 -29.90190505 137.59262342 -35.86035156 142.18115234 C-37.89996929 143.75499444 -39.9305559 145.34004662 -41.9609375 146.92578125 C-55.082182 157.12602077 -68.67618789 166.24399329 -83.02001953 174.63037109 C-84.71041776 175.62729623 -86.38509622 176.65073884 -88.05859375 177.67578125 C-105.00489396 187.82728642 -124.12079855 195.90963337 -143.375 200.375 C-144.24318359 200.58705078 -145.11136719 200.79910156 -146.00585938 201.01757812 C-168.9086609 206.42352607 -192.98560831 205.17374855 -213.8125 193.6875 C-220.1328477 189.7366374 -225.61587243 185.00688256 -230.8125 179.6875 C-231.64265625 178.86121094 -232.4728125 178.03492188 -233.328125 177.18359375 C-260.06673073 150.31886252 -274.66292821 113.79898357 -279.375 76.5 C-279.50430908 75.47970703 -279.63361816 74.45941406 -279.7668457 73.40820312 C-280.70574667 65.83932775 -281.54672261 58.31450572 -281.8125 50.6875 C-281.83973145 49.94322754 -281.86696289 49.19895508 -281.89501953 48.43212891 C-282.30620562 35.32330965 -281.54580826 22.36536099 -280.4375 9.3125 C-280.37437622 8.55329254 -280.31125244 7.79408508 -280.24621582 7.01187134 C-278.80167287 -10.08134708 -276.02808006 -25.12792264 -262.8125 -37.3125 C-187.50216522 -97.75264129 -67.96156738 -44.74279045 0 0 Z " fill="#FFFEFE" transform="translate(724.8125,936.3125)"/>
<path d="M0 0 C4.15437195 3.50864592 8.08847021 7.22224346 12 11 C12.9827632 11.91960193 13.9658395 12.83886937 14.94921875 13.7578125 C50.34102082 47.37104472 73.10474316 100.53779738 75.92822266 148.89575195 C76.25340351 162.95927075 69.86637991 174.63034076 60.3984375 184.6015625 C20.95731709 224.04268291 -37.1358753 236.63068444 -91 240 C-91.98645508 240.06477539 -92.97291016 240.12955078 -93.98925781 240.19628906 C-108.50507074 241.02920651 -122.15719599 238.50224332 -136.36181641 235.70117188 C-142.28740908 234.55915723 -148.23746889 233.56769125 -154.1875 232.5625 C-157.82074807 231.93641284 -161.45336005 231.30672322 -165.0859375 230.67675781 C-167.83286653 230.20180227 -170.5801692 229.72966361 -173.328125 229.26074219 C-177.05690572 228.62358532 -180.7834569 227.97447003 -184.50894165 227.31832886 C-185.93923938 227.06830175 -187.37019855 226.8220237 -188.80184937 226.5798645 C-211.1395015 222.79421995 -211.1395015 222.79421995 -216.765625 215.4296875 C-219.36575358 210.31171289 -220.32138035 204.56741067 -221.54101562 198.99414062 C-223.05064259 192.43529325 -225.29070106 186.04129817 -227.48046875 179.68359375 C-237.70913623 149.89545511 -237.70913623 149.89545511 -231.375 135.8125 C-230.97821045 134.91249268 -230.5814209 134.01248535 -230.17260742 133.08520508 C-220.73063312 111.99355574 -209.96065298 91.76351953 -198 72 C-197.13017538 70.54038422 -196.26038094 69.08075046 -195.390625 67.62109375 C-182.52914412 46.29435391 -166.8091171 27.33769929 -149 10 C-148.15308594 9.15050781 -147.30617188 8.30101562 -146.43359375 7.42578125 C-102.41319186 -36.45330313 -48.08890337 -39.2158065 0 0 Z " fill="#FFFEFE" transform="translate(1166,779)"/>
<path d="M0 0 C11.47708716 5.92443015 23.42799708 10.15881968 35.82958984 13.73803711 C53.33699187 18.83067282 53.33699187 18.83067282 57.61474609 25.21459961 C59.74195473 30.51229754 60.32138354 35.7844857 60.94677734 41.40991211 C61.06354324 42.41379471 61.18030914 43.41767731 61.3006134 44.45198059 C61.68232109 47.74717635 62.05486323 51.04333816 62.42724609 54.33959961 C62.69217522 56.64377881 62.95764397 58.94789602 63.22363281 61.25195312 C63.89943887 67.11983989 64.56757929 72.9885707 65.2333374 78.85760498 C65.70303837 82.9917101 66.17681362 87.12534089 66.65106201 91.25892639 C68.9028519 110.88810718 71.10904717 130.52239507 73.27148438 150.16162109 C73.34619965 150.83821777 73.42091492 151.51481445 73.49789429 152.21191406 C73.71813252 154.20745081 73.93743985 156.20309022 74.15673828 158.19873047 C74.46782136 160.97878992 74.80528275 163.75430816 75.15869141 166.52929688 C76.26613455 175.29648866 77.0029281 183.92472416 76.98974609 192.77709961 C76.98813477 193.93459717 76.98652344 195.09209473 76.98486328 196.28466797 C76.85339423 205.50361328 75.65163387 213.50325024 72.61474609 222.21459961 C72.31439453 223.14916992 72.01404297 224.08374023 71.70458984 225.04663086 C69.40800428 231.51882654 65.75312659 236.7788321 61.61474609 242.21459961 C60.50099609 243.76147461 60.50099609 243.76147461 59.36474609 245.33959961 C40.21591442 265.35883272 10.43623209 270.70104312 -16.12770081 271.41026306 C-64.72852806 272.40896163 -109.79201426 261.0717485 -145.67041016 226.92553711 C-165.09466182 207.52923401 -175.566806 181.9588222 -175.63525391 154.71459961 C-175.62426461 123.05883715 -162.13987204 97.52398032 -140.38525391 75.21459961 C-138.44858699 73.40729748 -136.4741606 71.67432868 -134.44775391 69.96850586 C-132.21736732 68.07183242 -130.09082892 66.0842522 -127.94775391 64.08959961 C-122.06522134 58.77077186 -115.74704177 54.0564655 -109.42431641 49.28100586 C-106.32337503 46.93783476 -103.27429204 44.54417582 -100.26025391 42.08959961 C-91.13093962 34.72425453 -81.50001899 27.98679605 -71.93920898 21.19775391 C-67.69055513 18.17145333 -63.48790491 15.08631986 -59.2956543 11.98242188 C-56.07098946 9.59567962 -52.83928451 7.21863007 -49.60498047 4.8449707 C-48.20137849 3.81403647 -46.79946088 2.78080158 -45.39990234 1.74438477 C-29.28013052 -10.1502739 -17.43809585 -9.04983979 0 0 Z " fill="#FFFEFE" transform="translate(803.38525390625,1076.785400390625)"/>
<path d="M0 0 C4.89037623 1.14773045 9.78621572 2.27155061 14.68255615 3.39352417 C15.71450104 3.63004196 16.74644592 3.86655975 17.80966187 4.11024475 C29.6924284 6.81977071 41.61522801 9.33517581 53.54193115 11.84274292 C55.73760098 12.30629671 57.93323906 12.77000091 60.12884521 13.2338562 C69.57800267 15.22731964 79.02933872 17.20759138 88.49264526 19.13288879 C92.28831428 19.90722936 96.08150711 20.69327772 99.87438965 21.48114014 C101.61037933 21.83848669 103.34752345 22.19028483 105.0859375 22.53564453 C128.20764504 27.13090538 149.36623478 35.94426619 167.41693115 51.28024292 C168.24885986 51.98455444 168.24885986 51.98455444 169.09759521 52.70309448 C185.3917703 66.67887862 195.93509008 82.24515274 197.73724365 104.17868042 C199.26404589 140.65033388 181.65642063 175.58488564 158.47943115 202.65524292 C157.93576904 203.29220093 157.39210693 203.92915894 156.83197021 204.5854187 C156.31473389 205.17307007 155.79749756 205.76072144 155.2645874 206.36618042 C154.81091797 206.88228882 154.35724854 207.39839722 153.88983154 207.93014526 C152.41693115 209.28024292 152.41693115 209.28024292 150.30145264 210.27487183 C148.06449368 211.19060097 148.06449368 211.19060097 147.41693115 214.28024292 C145.32891857 216.12710475 143.25052057 217.83969276 141.04193115 219.53024292 C140.40634277 220.02113403 139.77075439 220.51202515 139.11590576 221.01779175 C133.74614618 225.11773496 128.25786143 228.87699086 122.41693115 232.28024292 C121.30060303 232.93766479 120.1842749 233.59508667 119.03411865 234.27243042 C98.24291118 246.13790723 75.6695854 250.45298972 51.91693115 250.46774292 C50.87923584 250.47998901 49.84154053 250.49223511 48.7723999 250.50485229 C23.81717808 250.55146852 5.39536397 240.23530329 -12.0635376 223.16305542 C-18.29234224 216.03614406 -23.02273895 208.1107678 -27.33306885 199.71774292 C-28.1049353 198.21812012 -28.1049353 198.21812012 -28.89239502 196.6882019 C-40.74977142 173.35688304 -49.82566276 148.98918912 -58.79144287 124.44085693 C-59.52061037 122.45071315 -60.2582391 120.46393636 -60.99810791 118.47775269 C-64.00480926 110.28959443 -66.40306151 102.03594595 -68.58306885 93.59274292 C-68.92706528 92.27523312 -69.27155386 90.95785173 -69.61651611 89.64059448 C-70.29550864 87.04600784 -70.9715859 84.45072237 -71.64605713 81.85494995 C-72.46817906 78.71854837 -73.31201999 75.58976934 -74.1729126 72.46383667 C-80.40415908 49.78010338 -80.40415908 49.78010338 -75.58306885 40.28024292 C-71.98387115 34.54592794 -66.69010063 31.08404847 -61.24713135 27.22555542 C-55.10144778 22.73794484 -50.94562294 17.47561984 -46.64556885 11.28024292 C-42.06921069 4.70830949 -37.69838758 -0.89072653 -30.20806885 -4.21975708 C-20.05830678 -5.61972426 -9.82116939 -2.30857454 0 0 Z " fill="#FFFEFE" transform="translate(976.5830688476563,1039.7197570800781)"/>
<path d="M0 0 C0.58007812 0.22171875 1.16015625 0.4434375 1.7578125 0.671875 C1.7578125 5.47565111 0.87379085 6.19025226 -2.1796875 9.734375 C-3.00339844 10.70503906 -3.82710937 11.67570312 -4.67578125 12.67578125 C-5.52269531 13.66449219 -6.36960937 14.65320312 -7.2421875 15.671875 C-8.74722536 17.50107486 -10.2473618 19.33432031 -11.7421875 21.171875 C-13.94446916 23.86397447 -16.14707386 26.55580114 -18.3515625 29.24609375 C-22.82799795 34.71093921 -27.2892515 40.18788145 -31.7421875 45.671875 C-37.58846519 52.87183232 -43.45693417 60.05330097 -49.3359375 67.2265625 C-53.81719058 72.69823745 -58.28399624 78.18140935 -62.7421875 83.671875 C-67.89442387 90.01708882 -73.06166726 96.3497216 -78.2421875 102.671875 C-79.74233031 104.50509148 -81.24232832 106.33842646 -82.7421875 108.171875 C-109.7421875 141.171875 -109.7421875 141.171875 -111.9765625 143.90234375 C-113.52920922 145.80032051 -115.08126284 147.69878257 -116.6328125 149.59765625 C-120.48173312 154.30684887 -124.33619145 159.00987971 -128.2421875 163.671875 C-136.59803813 156.95086471 -143.45069149 148.80672121 -150.44140625 140.71484375 C-151.81646233 139.15485605 -153.22038854 137.62026899 -154.63671875 136.09765625 C-155.45527344 135.21464844 -156.27382812 134.33164063 -157.1171875 133.421875 C-157.87773437 132.61234375 -158.63828125 131.8028125 -159.421875 130.96875 C-161.17760692 128.75336294 -161.84988244 127.43066544 -162.2421875 124.671875 C-155.94203832 119.40587558 -149.52942784 114.32575386 -142.9921875 109.359375 C-137.43436199 105.13683513 -131.92885657 100.86190669 -126.4921875 96.484375 C-119.8179138 91.11152341 -113.05098951 85.87269425 -106.2421875 80.671875 C-97.18809264 73.73970411 -88.19784034 66.73068796 -79.2421875 59.671875 C-71.9039951 53.88793846 -64.55242356 48.12518198 -57.13647461 42.44116211 C-53.14860848 39.3803979 -49.19049565 36.2834556 -45.2421875 33.171875 C-40.76406562 29.64275908 -36.2675249 26.14024452 -31.7421875 22.671875 C-27.13443303 19.13996779 -22.5554504 15.57356859 -17.9921875 11.984375 C-17.11167725 11.29553223 -17.11167725 11.29553223 -16.21337891 10.59277344 C-13.61262482 8.55535693 -11.03845306 6.5020963 -8.5 4.38671875 C-7.71367187 3.73832031 -6.92734375 3.08992188 -6.1171875 2.421875 C-5.45460938 1.85984375 -4.79203125 1.2978125 -4.109375 0.71875 C-2.2421875 -0.328125 -2.2421875 -0.328125 0 0 Z " fill="#FFFD6E" transform="translate(325.2421875,1604.328125)"/>
<path d="M0 0 C3.46108537 1.48443842 5.68513626 3.44630233 8.3125 6.125 C9.03050781 6.84945312 9.74851562 7.57390625 10.48828125 8.3203125 C12.46429486 10.4284701 14.37282145 12.56090782 16.265625 14.7421875 C20.20573232 19.27386901 24.30859627 23.6406634 28.4375 28 C29.16904297 28.77472656 29.90058594 29.54945313 30.65429688 30.34765625 C32.43490214 32.233003 34.21681678 34.11709191 36 36 C34.90873431 39.27379706 34.36971004 39.74721195 31.7109375 41.71484375 C31.02418945 42.23006592 30.33744141 42.74528809 29.62988281 43.27612305 C28.51371582 44.09850464 28.51371582 44.09850464 27.375 44.9375 C25.81400831 46.10791486 24.25413348 47.27982062 22.6953125 48.453125 C21.90672852 49.04544922 21.11814453 49.63777344 20.30566406 50.24804688 C16.90369511 52.83302455 13.57376234 55.50315871 10.25 58.1875 C3.5767654 63.56131142 -3.19116474 68.79969773 -10 74 C-19.05714194 80.92675332 -19.05714194 80.92675332 -28 88 C-32.16529504 91.35092646 -36.38642446 94.62253762 -40.62988281 97.8737793 C-46.12991773 102.09052545 -51.59445683 106.35229688 -57.06005859 110.61352539 C-61.52150974 114.08692971 -66.00272357 117.53202884 -70.50512695 120.95214844 C-77.45448553 126.2311959 -84.27783644 131.63096224 -91.02050781 137.17138672 C-96.54295761 141.6853772 -102.21171265 145.98303942 -107.94946289 150.21899414 C-111.62247728 152.93399762 -111.62247728 152.93399762 -115 156 C-115.99 156 -116.98 156 -118 156 C-119.75 154.25 -119.75 154.25 -121 152 C-120.71185012 147.72577682 -117.71205587 144.75130938 -115.125 141.5625 C-114.63539795 140.94922852 -114.1457959 140.33595703 -113.64135742 139.70410156 C-109.8165211 134.94001401 -105.88739526 130.26624134 -101.92089844 125.61987305 C-98.51007509 121.62285264 -95.20663918 117.55367243 -91.94140625 113.4375 C-89.17371197 109.96256794 -86.35191616 106.53284715 -83.53515625 103.09765625 C-80.03798721 98.82923778 -76.56142092 94.54406442 -73.08374023 90.25976562 C-70.28088842 86.80685358 -67.47581105 83.35582929 -64.6640625 79.91015625 C-59.50922147 73.58826775 -54.38830212 67.24740444 -49.375 60.8125 C-45.41289631 55.72858725 -41.3149836 50.78639233 -37.12231445 45.89160156 C-33.82838383 42.0279384 -30.67382758 38.07416695 -27.5625 34.0625 C-23.29475275 28.56412835 -18.84664513 23.25517071 -14.29174805 17.99316406 C-9.28294358 12.19861627 -4.2528695 6.37930425 0 0 Z " fill="#FFFE6E" transform="translate(1482,233)"/>
<path d="M0 0 C3.38297674 1.391748 4.7828982 2.74666819 6.59375 5.90234375 C7.29334839 7.09875488 7.29334839 7.09875488 8.00708008 8.31933594 C8.49974365 9.18333008 8.99240723 10.04732422 9.5 10.9375 C10.57490483 12.77586245 11.65177548 14.61307668 12.73046875 16.44921875 C13.27622559 17.38169434 13.82198242 18.31416992 14.38427734 19.27490234 C16.78119109 23.31756647 19.28712341 27.28672752 21.8125 31.25 C22.80359187 32.80976467 23.7944716 34.36966415 24.78515625 35.9296875 C25.29836426 36.73760742 25.81157227 37.54552734 26.34033203 38.37792969 C29.49666723 43.36454928 32.62279518 48.37007967 35.75 53.375 C36.39743164 54.41092285 37.04486328 55.4468457 37.71191406 56.51416016 C40.84922636 61.53887565 43.97304834 66.57073648 47.0625 71.625 C50.47230195 77.19067673 53.98466702 82.68799338 57.5 88.1875 C62.79207156 96.47039926 67.98653091 104.8084941 73.125 113.1875 C77.75309073 120.73310823 82.39349909 128.26870342 87.125 135.75 C87.59083496 136.48686035 88.05666992 137.2237207 88.53662109 137.98291016 C91.29097187 142.32925112 94.06678886 146.66137223 96.8515625 150.98828125 C97.4997998 151.99858398 98.14803711 153.00888672 98.81591797 154.04980469 C100.08438583 156.02568115 101.35671833 157.99908308 102.63330078 159.96972656 C103.48770752 161.30148926 103.48770752 161.30148926 104.359375 162.66015625 C104.86952148 163.45043213 105.37966797 164.24070801 105.90527344 165.05493164 C107 167 107 167 107 169 C101.54008449 167.61847592 98.33033142 165.10911614 94.25 161.4375 C93.63946777 160.9010083 93.02893555 160.3645166 92.39990234 159.81176758 C90.59095718 158.21760796 88.793857 156.61110208 87 155 C86.05898438 154.15953125 85.11796875 153.3190625 84.1484375 152.453125 C82.58648203 151.05075012 81.02839014 149.64404265 79.4765625 148.23046875 C77.40353144 146.36343289 75.30948902 144.52825424 73.203125 142.69921875 C69.08468165 139.10290602 65.09585466 135.38278203 61.125 131.625 C55.71538519 126.51683219 50.25703692 121.49990852 44.625 116.63671875 C43 115 43 115 43 113 C42.43227371 112.75726349 41.86454742 112.51452698 41.27961731 112.26443481 C38.56305815 110.75764156 36.72156123 108.96854723 34.52612305 106.76904297 C33.20906624 105.4566011 33.20906624 105.4566011 31.86540222 104.11764526 C30.91399636 103.15933607 29.96277316 102.20084549 29.01171875 101.2421875 C28.02565957 100.25493461 27.03922867 99.26805286 26.05244446 98.28152466 C23.98407803 96.21159502 21.9191089 94.13835479 19.85668945 92.0625 C17.23271145 89.42163291 14.60230084 86.78729446 11.96948528 84.15524101 C9.92981483 82.11529634 7.89277889 80.07273752 5.85657692 78.02933121 C4.88886706 77.0584707 3.92057816 76.08818695 2.95166588 75.11852646 C-2.03214073 70.12666156 -6.91771311 65.10412302 -11.49897766 59.73789978 C-14.18718477 56.62546473 -17.04688196 53.67222781 -19.875 50.6875 C-36.15205636 33.34573164 -36.15205636 33.34573164 -37 28 C-28.04541852 21.06939927 -19.02034792 14.23818617 -9.95068359 7.45898438 C-6.63114392 4.97618474 -3.31566061 2.48797632 0 0 Z " fill="#FFFD6E" transform="translate(419,174)"/>
<path d="M0 0 C1.98 0.66 3.96 1.32 6 2 C5.35757666 8.69760503 4.24758255 15.16682849 2.875 21.75 C1.31142016 29.39056212 -0.20990195 37.03664434 -1.640625 44.703125 C-1.78112274 45.45587708 -1.92162048 46.20862915 -2.06637573 46.98419189 C-2.35557065 48.53465655 -2.64470363 50.08513277 -2.93377686 51.63562012 C-5.42261932 64.97256566 -8.06897545 78.25986476 -10.93695068 91.52029419 C-13.46573311 103.23385849 -15.73947234 114.98451752 -17.93347168 126.76498413 C-20.33913029 139.67156311 -22.9095232 152.5370454 -25.60351562 165.38647461 C-27.16554479 172.85783905 -28.65611144 180.33453318 -30.01092529 187.84602356 C-30.52392264 190.65382157 -31.09558969 193.28676906 -32 196 C-38.24045229 194.74608843 -44.18539696 193.05824472 -50.19140625 190.9609375 C-51.02212143 190.67521881 -51.85283661 190.38950012 -52.70872498 190.09512329 C-55.3282554 189.19299062 -57.94538903 188.28412456 -60.5625 187.375 C-62.35205857 186.75736331 -64.14177081 186.14017167 -65.93164062 185.5234375 C-70.28955208 184.02075916 -74.64532931 182.51204285 -79 181 C-78.4328156 176.72818309 -77.41460937 173.24792166 -75.62109375 169.3359375 C-75.12077637 168.23354736 -74.62045898 167.13115723 -74.10498047 165.99536133 C-73.55471191 164.80064209 -73.00444336 163.60592285 -72.4375 162.375 C-71.54854291 160.42315943 -70.66221878 158.47013535 -69.77587891 156.5171051 C-69.15040792 155.13947934 -68.52408811 153.76223868 -67.89697266 152.38536072 C-64.66739721 145.29041788 -61.51241513 138.16301998 -58.35842896 131.03424072 C-52.14230201 116.99090561 -45.84173755 102.98701006 -39.5 89 C-26.10155697 59.44574537 -12.72339069 29.85261569 0 0 Z " fill="#FFFD6E" transform="translate(567,1792)"/>
<path d="M0 0 C1.85904534 6.19076352 3.70957623 12.38402552 5.55419922 18.57910156 C6.18277178 20.6864584 6.81329391 22.79323474 7.44580078 24.89941406 C8.35441592 27.92622933 9.25600809 30.95506036 10.15625 33.984375 C10.5827887 35.39707672 10.5827887 35.39707672 11.01794434 36.83831787 C11.27821411 37.71892883 11.53848389 38.59953979 11.80664062 39.50683594 C12.03758423 40.27960876 12.26852783 41.05238159 12.50646973 41.84857178 C13 44 13 44 13 48 C11.80552246 48.20568604 10.61104492 48.41137207 9.38037109 48.62329102 C-11.57681766 52.23533446 -32.52844332 55.86770953 -53.4375 59.75 C-65.80723756 62.04581951 -78.18375655 64.28206757 -90.58349609 66.41064453 C-98.28715415 67.73954481 -105.98706936 69.09004715 -113.6875 70.4375 C-114.98447311 70.66438004 -114.98447311 70.66438004 -116.30764771 70.89584351 C-129.61208537 73.22383604 -142.91219523 75.57475594 -156.20703125 77.95703125 C-157.17205566 78.12928223 -158.13708008 78.3015332 -159.13134766 78.47900391 C-161.09640156 78.83589114 -163.05956855 79.20328234 -165.02099609 79.57958984 C-165.98730957 79.76344238 -166.95362305 79.94729492 -167.94921875 80.13671875 C-168.80217529 80.30260498 -169.65513184 80.46849121 -170.53393555 80.6394043 C-173.05837995 81.0085365 -175.45251156 81.06292556 -178 81 C-178.66 78.69 -179.32 76.38 -180 74 C-177.56283515 72.98451465 -175.12566565 71.96904047 -172.68847656 70.95361328 C-170.5288946 70.05373235 -168.36939175 69.15366154 -166.20996094 68.25341797 C-160.82404571 66.00837938 -155.43727537 63.76550045 -150.046875 61.53125 C-139.48193137 57.14827305 -128.94541962 52.70560389 -118.4375 48.1875 C-108.54011988 43.9320716 -98.6248776 39.72347398 -88.6875 35.5625 C-88.04211273 35.29220978 -87.39672546 35.02191956 -86.73178101 34.74343872 C-80.88115009 32.2936833 -75.02906215 29.84741785 -69.17626953 27.40283203 C-53.65147688 20.91789153 -38.1519356 14.37778552 -22.6875 7.75 C-21.52281189 7.25104218 -21.52281189 7.25104218 -20.33459473 6.74200439 C-18.14326562 5.80282164 -15.95238125 4.86261144 -13.76171875 3.921875 C-13.10493637 3.64022491 -12.44815399 3.35857483 -11.77146912 3.06838989 C-4.36938505 -0.11498382 -4.36938505 -0.11498382 0 0 Z " fill="#FFFD6E" transform="translate(1653,520)"/>
<path d="M0 0 C0.33 2.64 0.66 5.28 1 8 C-4.2071116 10.46092662 -9.41555812 12.91901011 -14.625 15.375 C-15.39986755 15.74036865 -16.17473511 16.1057373 -16.9730835 16.48217773 C-26.32675986 20.89024048 -35.69445409 25.25814458 -45.125 29.5 C-51.02237814 32.15522533 -56.86154392 34.87765954 -62.625 37.8125 C-73.98212121 43.59528169 -85.60629995 48.82876909 -97.17950439 54.16101074 C-100.13981053 55.52529036 -103.099151 56.89166124 -106.05859375 58.2578125 C-109.41395267 59.80645816 -112.76932477 61.35507517 -116.12475586 62.90356445 C-118.18575873 63.85471134 -120.2467154 64.80595834 -122.30761719 65.75732422 C-123.92005786 66.5015501 -125.53263985 67.24547012 -127.14550781 67.98876953 C-133.72416444 71.02281699 -140.26132622 74.12238071 -146.765625 77.3125 C-148.61940026 78.21778557 -150.47348562 79.122433 -152.32766724 80.02688599 C-153.55965678 80.63009449 -154.79021271 81.23624058 -156.01925659 81.84542847 C-157.75288903 82.70470562 -159.49160032 83.55371237 -161.23046875 84.40234375 C-162.24520264 84.90241943 -163.25993652 85.40249512 -164.30541992 85.91772461 C-167 87 -167 87 -171 87 C-171.4125 85.79988281 -171.825 84.59976562 -172.25 83.36328125 C-175.78050131 73.15647165 -179.44458273 63.02416692 -183.421875 52.98168945 C-183.90527344 51.74165161 -183.90527344 51.74165161 -184.3984375 50.4765625 C-184.68380371 49.75549316 -184.96916992 49.03442383 -185.26318359 48.29150391 C-186.1428142 45.55584688 -186.58257227 42.83942597 -187 40 C-183.00296169 39.05475183 -179.00512268 38.11298129 -175.0065918 37.17407227 C-173.65384201 36.85595659 -172.30129385 36.53698198 -170.94897461 36.21704102 C-162.69285807 34.26447714 -154.42881136 32.4600784 -146.1027832 30.82446289 C-137.58476552 29.13218403 -129.10921456 27.22760834 -120.625 25.375 C-118.58986342 24.93171309 -116.55470681 24.4885181 -114.51953125 24.04541016 C-104.74753564 21.91644323 -94.97769138 19.7778863 -85.2109375 17.625 C-81.80731545 16.874892 -78.40368022 16.124844 -75 15.375 C-74.16973297 15.19207397 -73.33946594 15.00914795 -72.48403931 14.82067871 C-56.05104711 11.20333704 -39.59158159 7.71584318 -23.11868286 4.28512573 C-19.7153926 3.57503198 -16.31517509 2.85382257 -12.91943359 2.10839844 C-11.6608252 1.83286133 -10.4022168 1.55732422 -9.10546875 1.2734375 C-7.9971167 1.02770996 -6.88876465 0.78198242 -5.74682617 0.52880859 C-3 0 -3 0 0 0 Z " fill="#FFFD6E" transform="translate(187,1375)"/>
<path d="M0 0 C0.87207031 1.93579102 0.87207031 1.93579102 1.578125 4.50390625 C1.98285034 5.93633667 1.98285034 5.93633667 2.39575195 7.39770508 C2.81860474 8.96427856 2.81860474 8.96427856 3.25 10.5625 C3.87335544 12.78655435 4.49706235 15.01051022 5.12109375 17.234375 C5.43546387 18.37068359 5.74983398 19.50699219 6.07373047 20.67773438 C7.43786141 25.57048446 8.87707011 30.44030348 10.3125 35.3125 C17.06308686 58.4125277 23.62351288 81.56806181 30.09179688 104.74853516 C31.63871838 110.28668049 33.19119964 115.82326233 34.74624634 121.35913086 C35.12268487 122.6992561 35.4989675 124.03942514 35.87509155 125.37963867 C38.12150645 133.38166528 40.39056839 141.37672352 42.69140625 149.36328125 C43.1434737 150.93505848 43.59554076 152.50683582 44.04760742 154.07861328 C44.9071781 157.066404 45.7712419 160.05284423 46.63793945 163.03857422 C49.02553855 171.30767073 51.17073416 179.58736742 53 188 C48.43623157 189.67206459 43.94667572 190.60782412 39.15234375 191.2890625 C38.41802628 191.39721283 37.6837088 191.50536316 36.92713928 191.61679077 C35.38369355 191.842858 33.83985466 192.06625563 32.2956543 192.28710938 C29.94018315 192.62461554 27.58628842 192.97180969 25.23242188 193.3203125 C23.72664616 193.53963764 22.22078931 193.75840663 20.71484375 193.9765625 C19.66622414 194.13120468 19.66622414 194.13120468 18.59642029 194.28897095 C15.03544601 194.79350764 11.5970492 195.11402624 8 195 C-0.12668851 174.78640928 -0.07884731 154.42581643 -0.33102417 132.99728394 C-0.56606066 109.9210958 -0.56606066 109.9210958 -2.4375 86.9375 C-4.30943735 71.26131275 -4.69185214 55.51635162 -5.1875 39.75 C-5.2089143 39.07790874 -5.2303286 38.40581749 -5.25239182 37.71335983 C-5.39672578 33.17886281 -5.53456683 28.64420613 -5.66796875 24.109375 C-5.70218933 22.9521846 -5.73640991 21.7949942 -5.77166748 20.60273743 C-5.96171061 13.73314301 -6.04123541 6.87213659 -6 0 C-3 -1 -3 -1 0 0 Z " fill="#FFFD6E" transform="translate(879,1805)"/>
<path d="M0 0 C5.9839086 0.55841976 11.59160219 1.43933249 17.375 3.0625 C18.50881104 3.37707153 18.50881104 3.37707153 19.66552734 3.69799805 C28.7572859 6.34238179 37.3686504 10.14364314 46 14 C45.41978499 18.24338695 44.41551809 21.85548806 42.76953125 25.8046875 C42.30353516 26.9289917 41.83753906 28.0532959 41.35742188 29.21166992 C40.59268555 31.02501831 40.59268555 31.02501831 39.8125 32.875 C39.27520389 34.15918296 38.73809855 35.44344574 38.20117188 36.7277832 C23.61061937 71.52057745 7.69012633 105.66736903 -8.53642273 139.72143555 C-10.51087445 143.86648056 -12.4809988 148.01350895 -14.44384766 152.1640625 C-15.04444756 153.43395775 -15.04444756 153.43395775 -15.65718079 154.72950745 C-16.41279803 156.32797724 -17.16787769 157.92670133 -17.92228699 159.52574158 C-24.23641957 172.88360586 -31.03450451 185.97194362 -38 199 C-38.66 198.67 -39.32 198.34 -40 198 C-39.8548999 197.31526611 -39.7097998 196.63053223 -39.56030273 195.92504883 C-36.38689371 180.89616941 -33.37674075 165.84983688 -30.5625 150.75 C-28.23853787 138.28642819 -25.74454845 125.87510881 -23.06378174 113.48364258 C-20.50898685 101.65203688 -18.2148941 89.78178739 -15.99612427 77.88299561 C-13.86266463 66.44831603 -11.60542463 55.05100023 -9.20996094 43.66772461 C-7.86439213 37.25001337 -6.56507959 30.82610764 -5.328125 24.38671875 C-5.12111717 23.30922363 -5.12111717 23.30922363 -4.90992737 22.20996094 C-4.23995437 18.71468178 -3.5751727 15.21847966 -2.91577148 11.72119141 C-2.67930908 10.47901855 -2.44284668 9.2368457 -2.19921875 7.95703125 C-1.99127686 6.85335205 -1.78333496 5.74967285 -1.5690918 4.61254883 C-1 2 -1 2 0 0 Z " fill="#FFFD6E" transform="translate(1145,14)"/>
<path d="M0 0 C3.18060429 1.4036369 5.30187021 3.06170991 7.73950195 5.52832031 C8.45737381 6.24957092 9.17524567 6.97082153 9.91487122 7.71392822 C10.68159653 8.49411316 11.44832184 9.2742981 12.23828125 10.078125 C13.03727341 10.88231873 13.83626556 11.68651245 14.6594696 12.51507568 C17.21526913 15.08868647 19.76430491 17.66886136 22.3125 20.25 C24.8508012 22.8160198 27.39057503 25.38053582 29.93339539 27.94207764 C31.51452077 29.53534604 33.09296629 31.13127987 34.66828918 32.73028564 C38.50392901 36.60036691 42.38582229 40.30956131 46.58355713 43.78608704 C49.00807899 45.86393894 50.92671038 48.3093488 52.93359375 50.77734375 C54.76233844 52.74436781 56.61896748 54.42850461 58.65576172 56.17163086 C62.80129419 59.77972816 66.70477203 63.5763902 70.57421875 67.4765625 C71.28430084 68.18810486 71.99438293 68.89964722 72.72598267 69.63275146 C74.2537173 71.16426522 75.78029662 72.69693215 77.30581665 74.23065186 C79.72580168 76.66350535 82.14898843 79.09312949 84.57299805 81.52197266 C90.59005432 87.55233492 96.60163687 93.58814437 102.61340332 99.6237793 C107.70364193 104.73380573 112.79596193 109.84174094 117.89102173 114.94696045 C120.26820672 117.3305867 122.64233867 119.7172248 125.01635742 122.10400391 C126.48601575 123.57729769 127.95581632 125.05044962 129.42578125 126.5234375 C130.07640533 127.17922791 130.72702942 127.83501831 131.39736938 128.51068115 C135.2068609 132.32060437 139.13042998 135.93425716 143.22331238 139.43862915 C144.88631542 140.90009285 146.45393673 142.41629504 148 144 C146.74507047 147.76478859 145.16902481 148.69380667 142.0625 151.125 C138.2680907 154.15073542 134.58063538 157.22397726 131 160.5 C126.55044473 164.5573669 121.93912781 168.37573087 117.25 172.15234375 C114.97880251 173.95605161 114.97880251 173.95605161 113 176 C112.01 176 111.02 176 110 176 C108.38424352 173.95606131 106.9950065 171.96552499 105.60546875 169.7734375 C104.96933151 168.79716904 104.96933151 168.79716904 104.32034302 167.80117798 C102.93247984 165.66556399 101.55991766 163.52056597 100.1875 161.375 C99.23479822 159.90180659 98.28126212 158.42915239 97.3269043 156.95703125 C94.96619439 153.30936655 92.61825513 149.65371237 90.27624512 145.99401855 C89.12111424 144.18923014 87.96394477 142.38577569 86.80566406 140.58300781 C82.84096474 134.40711186 78.90672621 128.21271697 75 122 C74.53029785 121.25347168 74.0605957 120.50694336 73.57666016 119.73779297 C68.75526382 112.06653027 63.98338071 104.36563104 59.2421875 96.64453125 C54.74742901 89.33070995 50.21715235 82.03872384 45.69677734 74.74072266 C44.06354827 72.10264646 42.4318708 69.4636182 40.80078125 66.82421875 C35.12194788 57.63745888 29.41929501 48.466318 23.6875 39.3125 C18.48501934 30.99755852 13.30159545 22.67105256 8.15029907 14.3243103 C7.42757204 13.15377434 6.70408657 11.98370631 5.97982788 10.81411743 C4.97522885 9.1912454 3.97385947 7.56637546 2.97265625 5.94140625 C2.11039429 4.54450562 2.11039429 4.54450562 1.23071289 3.11938477 C0 1 0 1 0 0 Z " fill="#FFFD6E" transform="translate(1150,1651)"/>
<path d="M0 0 C1.46700242 11.53005858 2.5567227 23.05247833 3.37768555 34.64599609 C3.56139468 37.23442619 3.75192862 39.82228699 3.94335938 42.41015625 C5.46277764 63.24280606 6.20992137 84.05403838 6.5625 104.9375 C6.58367889 106.13470673 6.60485779 107.33191345 6.62667847 108.56539917 C7.14430933 138.37608652 7.10182843 168.18597614 7 198 C4.28519214 195.28519214 3.725017 192.21928982 2.71484375 188.6171875 C2.49789856 187.86329239 2.28095337 187.10939728 2.05743408 186.33265686 C1.34441064 183.84854712 0.64088314 181.36185498 -0.0625 178.875 C-0.55572631 177.14902484 -1.04946508 175.42319604 -1.54370117 173.69750977 C-3.03887003 168.46774947 -4.52105094 163.23436702 -6 158 C-6.21906006 157.22537415 -6.43812012 156.45074829 -6.66381836 155.65264893 C-8.78986283 148.13322769 -10.90506191 140.61081157 -13.01171875 133.0859375 C-14.69620285 127.07232128 -16.4025473 121.06533734 -18.125 115.0625 C-20.19631447 107.8414619 -22.23138055 100.61093876 -24.25 93.375 C-26.86170667 84.02047476 -29.50969315 74.67674875 -32.17962646 65.3387146 C-32.81181411 63.12739915 -33.44329232 60.91588197 -34.07470703 58.7043457 C-36.08581147 51.66495097 -38.10504131 44.62806759 -40.14524841 37.5970459 C-41.08263995 34.36469151 -42.01615811 31.13122448 -42.9493103 27.89764404 C-43.39692003 26.35073102 -43.84646033 24.8043752 -44.29800415 23.25860596 C-44.92479549 21.11255519 -45.54509717 18.96472501 -46.1640625 16.81640625 C-46.51936035 15.59381104 -46.8746582 14.37121582 -47.24072266 13.11157227 C-48 10 -48 10 -48 6 C-46.71609375 5.81824219 -45.4321875 5.63648438 -44.109375 5.44921875 C-42.32290495 5.19539496 -40.5364476 4.94148177 -38.75 4.6875 C-37.8101123 4.55432373 -36.87022461 4.42114746 -35.90185547 4.28393555 C-31.06278779 3.59454408 -26.22782451 2.88724384 -21.3984375 2.1328125 C-20.51188477 1.99528564 -19.62533203 1.85775879 -18.71191406 1.71606445 C-17.02827302 1.45341264 -15.34528289 1.18654213 -13.66308594 0.91479492 C-12.8899707 0.79467041 -12.11685547 0.6745459 -11.3203125 0.55078125 C-10.65273926 0.44419189 -9.98516602 0.33760254 -9.29736328 0.2277832 C-6.19352212 -0.07996215 -3.11657485 -0.0332152 0 0 Z " fill="#FFFD6E" transform="translate(796,0)"/>
<path d="M0 0 C0 0.99 0 1.98 0 3 C-0.99 3.66 -1.98 4.32 -3 5 C-1.68 5.99 -0.36 6.98 1 8 C-2.63 8.66 -6.26 9.32 -10 10 C-10.33 9.34 -10.66 8.68 -11 8 C-7.37 5.36 -3.74 2.72 0 0 Z " fill="#FFE460" transform="translate(44,1002)"/>
<path d="M0 0 C5.47035213 3.79037089 9.89962427 7.75027653 14 13 C11 13 11 13 8.30078125 10.6640625 C7.29685338 9.65880492 6.3010225 8.64541032 5.3125 7.625 C4.80138672 7.11710937 4.29027344 6.60921875 3.76367188 6.0859375 C0 2.26699141 0 2.26699141 0 0 Z " fill="#FFE360" transform="translate(376,1048)"/>
<path d="M0 0 C0 0.99 0 1.98 0 3 C-2.30078125 5.078125 -2.30078125 5.078125 -5.3125 7.25 C-6.79169922 8.34054687 -6.79169922 8.34054687 -8.30078125 9.453125 C-9.63689453 10.21882813 -9.63689453 10.21882813 -11 11 C-11.99 10.67 -12.98 10.34 -14 10 C-12.22970554 8.70759488 -10.45874502 7.41610207 -8.6875 6.125 C-7.70136719 5.40570312 -6.71523437 4.68640625 -5.69921875 3.9453125 C-3.82476885 2.5944065 -1.92247007 1.28164671 0 0 Z " fill="#FFE25B" transform="translate(1127,1344)"/>
<path d="M0 0 C0 3 0 3 -1.609375 4.71875 C-2.31578125 5.3065625 -3.0221875 5.894375 -3.75 6.5 C-4.44609375 7.0878125 -5.1421875 7.675625 -5.859375 8.28125 C-7.87526805 9.89985026 -9.9207289 11.46396189 -12 13 C-12.66 12.67 -13.32 12.34 -14 12 C-9.38 8.04 -4.76 4.08 0 0 Z " fill="#FFE15D" transform="translate(690,401)"/>
<path d="M0 0 C3.90285767 1.58667578 6.33520982 4.13350481 9.25 7.125 C10.14203125 8.03507812 11.0340625 8.94515625 11.953125 9.8828125 C12.62859375 10.58148437 13.3040625 11.28015625 14 12 C13.34 12.66 12.68 13.32 12 14 C10.56041153 12.41856529 9.12341355 10.83477221 7.6875 9.25 C6.88699219 8.36828125 6.08648437 7.4865625 5.26171875 6.578125 C3.39083089 4.44550672 1.65915714 2.29812057 0 0 Z " fill="#FFE358" transform="translate(267,1072)"/>
<path d="M0 0 C-1.65 1.65 -3.3 3.3 -5 5 C-5.33 4.01 -5.66 3.02 -6 2 C-7.65 1.67 -9.3 1.34 -11 1 C-11 0.67 -11 0.34 -11 0 C-3.375 -1.125 -3.375 -1.125 0 0 Z " fill="#FFE461" transform="translate(1673,944)"/>
<path d="M0 0 C0.66 0.66 1.32 1.32 2 2 C-0.64 4.31 -3.28 6.62 -6 9 C-6.33 7.68 -6.66 6.36 -7 5 C-6.34 4.01 -5.68 3.02 -5 2 C-5 2.66 -5 3.32 -5 4 C-3.35 2.68 -1.7 1.36 0 0 Z " fill="#FFE55D" transform="translate(551,626)"/>
<path d="M0 0 C2.3828125 0.0234375 2.3828125 0.0234375 5.125 0.375 C6.03507812 0.48585938 6.94515625 0.59671875 7.8828125 0.7109375 C8.93082031 0.85402344 8.93082031 0.85402344 10 1 C9.67 1.66 9.34 2.32 9 3 C5.37 2.67 1.74 2.34 -2 2 C-1.34 1.34 -0.68 0.68 0 0 Z " fill="#FFE560" transform="translate(1491,985)"/>
<path d="M0 0 C-2.09782787 2.09782787 -3.3799207 2.6509396 -6.125 3.625 C-6.84945312 3.88539063 -7.57390625 4.14578125 -8.3203125 4.4140625 C-9.15175781 4.70410156 -9.15175781 4.70410156 -10 5 C-10.33 4.34 -10.66 3.68 -11 3 C-9.73581754 2.30034557 -8.46334598 1.61565237 -7.1875 0.9375 C-6.47980469 0.55464844 -5.77210938 0.17179688 -5.04296875 -0.22265625 C-3 -1 -3 -1 0 0 Z " fill="#FFE35B" transform="translate(659,556)"/>
<path d="M0 0 C4.28359673 1.8855148 6.15103592 4.35965701 9 8 C8.01 8 7.02 8 6 8 C4.39453125 6.25 4.39453125 6.25 2.8125 4 C2.28269531 3.2575 1.75289062 2.515 1.20703125 1.75 C0.80871094 1.1725 0.41039062 0.595 0 0 Z " fill="#FFE25D" transform="translate(521,1546)"/>
<path d="M0 0 C0.33 0.99 0.66 1.98 1 3 C0.01 4.485 0.01 4.485 -1 6 C-4 6 -4 6 -7 5 C-4.69 3.35 -2.38 1.7 0 0 Z " fill="#FFE462" transform="translate(1162,1317)"/>
<path d="M0 0 C4.28359673 1.8855148 6.15103592 4.35965701 9 8 C8.01 8 7.02 8 6 8 C4.39453125 6.25 4.39453125 6.25 2.8125 4 C2.28269531 3.2575 1.75289062 2.515 1.20703125 1.75 C0.80871094 1.1725 0.41039062 0.595 0 0 Z " fill="#FFE55C" transform="translate(1112,610)"/>
<path d="M0 0 C0 0.99 0 1.98 0 3 C-2.3125 5.25 -2.3125 5.25 -5 7 C-5.99 6.67 -6.98 6.34 -8 6 C-5.36 4.02 -2.72 2.04 0 0 Z " fill="#FFE35D" transform="translate(1151,1325)"/>
<path d="M0 0 C2.9375 0.8125 2.9375 0.8125 6 2 C6.33 2.99 6.66 3.98 7 5 C4.0625 4.1875 4.0625 4.1875 1 3 C0.67 2.01 0.34 1.02 0 0 Z " fill="#FFE45D" transform="translate(1406,956)"/>
<path d="M0 0 C0 0.99 0 1.98 0 3 C-1.75 4.75 -1.75 4.75 -4 6 C-5.32 5.67 -6.64 5.34 -8 5 C-4.04 2.525 -4.04 2.525 0 0 Z " fill="#FFE35D" transform="translate(736,368)"/>
</svg>
