<?xml version="1.0" encoding="UTF-8" standalone="no"?>
<!-- Created with Inkscape (http://www.inkscape.org/) -->

<svg
   xmlns:dc="http://purl.org/dc/elements/1.1/"
   xmlns:cc="http://creativecommons.org/ns#"
   xmlns:rdf="http://www.w3.org/1999/02/22-rdf-syntax-ns#"
   xmlns:svg="http://www.w3.org/2000/svg"
   xmlns="http://www.w3.org/2000/svg"
   version="1.1"
   width="618"
   height="175"
   id="svg2"
   xml:space="preserve"><metadata
     id="metadata8"><rdf:RDF><cc:Work
         rdf:about=""><dc:format>image/svg+xml</dc:format><dc:type
           rdf:resource="http://purl.org/dc/dcmitype/StillImage" /><dc:title></dc:title></cc:Work></rdf:RDF></metadata><defs
     id="defs6"><clipPath
       id="clipPath20"><path
         d="M 0,288 576,288 576,0 0,0 0,288 z"
         id="path22" /></clipPath></defs><g
     transform="matrix(1.25,0,0,-1.25,0,175)"
     id="g10"><g
       transform="translate(61.993919,137.66632)"
       id="g12"><path
         d="m 0,0 -59.573,0.004 0,-13.959 21.713,-0.005 0,-45.803 16.115,0 -0.005,45.808 L 0,-13.958 0,0 z"
         id="path14"
         style="fill:#656262;fill-opacity:1;fill-rule:evenodd;stroke:none" /></g><g
       transform="translate(-40.000181,-77.333683)"
       id="g16"><g
         clip-path="url(#clipPath20)"
         id="g18"><g
           transform="translate(264.0283,113.707)"
           id="g24"><path
             d="m 0,0 c 0,5.228 -4.257,9.43 -9.486,9.43 l -0.109,0 -20.855,0 c -1.832,0 -2.748,-0.917 -3.719,-2.372 -0.054,-0.052 -6.251,-9 -6.251,-9 l 20.209,0 c 2.372,-0.108 4.258,-2.047 4.258,-4.472 l 0,-27.972 15.953,0 L 0,-0.107 0,0"
             id="path26"
             style="fill:#e51635;fill-opacity:1;fill-rule:evenodd;stroke:none" /></g><path
           d="m 207.656,139.089 15.952,0 0,-59.768 -15.952,0 0,59.768 z"
           id="path28"
           style="fill:#e51635;fill-opacity:1;fill-rule:evenodd;stroke:none" /><g
           transform="translate(346.2676,123.1367)"
           id="g30"><path
             d="m 0,0 -45.323,0 0,-43.815 16.059,0 0,32.443 18.215,0 c 2.481,0 4.53,-1.993 4.53,-4.472 l 0,-27.971 16.006,0 0,34.385 C 9.487,-4.202 5.228,0 0,0"
             id="path32"
             style="fill:#e51635;fill-opacity:1;fill-rule:evenodd;stroke:none" /></g><g
           transform="translate(119.0557,139.0889)"
           id="g34"><path
             d="m 0,0 -76.635,0 0,-59.768 15.898,0 0,45.81 17.03,0 c 1.617,0 2.911,-1.348 2.911,-2.965 l 0,-42.845 15.952,0 0,42.845 c 0,1.673 1.348,2.965 2.964,2.965 l 0.054,0 12.503,0 c 2.425,0 4.419,-1.94 4.419,-4.366 l 0,-41.444 15.899,0 0,48.775 C 10.995,-4.904 6.09,0 0,0"
             id="path36"
             style="fill:#e51635;fill-opacity:1;fill-rule:evenodd;stroke:none" /></g><g
           transform="translate(274.5376,108.9092)"
           id="g38"><path
             d="m 0,0 0,-29.588 15.953,0 0,26.462 0,16.867 c 0,0 -7.385,-4.58 -12.612,-7.867 C 1.346,4.582 0,2.425 0,0"
             id="path40"
             style="fill:#e51635;fill-opacity:1;fill-rule:evenodd;stroke:none" /></g><g
           transform="translate(274.5376,139.1416)"
           id="g42"><path
             d="m 0,0 15.953,0 0,-11.046 L 0,-21.608 0,0 z"
             id="path44"
             style="fill:#e51635;fill-opacity:1;fill-rule:evenodd;stroke:none" /></g><g
           transform="translate(441.0674,123.1367)"
           id="g46"><path
             d="m 0,0 c -3.99,0 -6.576,-3.072 -6.576,-6.36 l 0,-37.455 16.059,0 0,27.918 c 0,2.478 1.779,4.581 4.313,4.581 l 11.91,0 c 1.723,0.105 3.181,1.13 4.096,2.478 C 29.855,-8.784 36.052,0 36.052,0 L 0,0 z"
             id="path48"
             style="fill:#e51635;fill-opacity:1;fill-rule:evenodd;stroke:none" /></g><g
           transform="translate(407.9766,139.0889)"
           id="g50"><path
             d="m 0,0 0,-15.952 0,-32.876 -23.121,0 c -1.616,0 -2.749,1.403 -2.749,2.588 l 0,14.444 0.055,0 c 0,2.479 1.993,4.472 4.473,4.472 l 11.693,0 c 1.725,0 3.504,1.024 4.258,2.209 l 5.391,9.163 -32.442,0 c -5.177,0 -9.433,-4.202 -9.433,-9.43 l 0,-0.107 0,-26.41 c 0,-5.066 4.041,-7.869 7.759,-7.869 l 50.122,0 L 16.006,0 0,0 z"
             id="path52"
             style="fill:#e51635;fill-opacity:1;fill-rule:evenodd;stroke:none" /></g><g
           transform="translate(523.9531,123.1367)"
           id="g54"><path
             d="m 0,0 -36.864,0 c -1.832,0 -3.5,-0.861 -4.525,-2.265 l -6.198,-9.107 37.132,0 c 2.317,-0.107 4.203,-2.102 4.203,-4.472 l -0.055,-17.407 -27.807,0 0,5.012 c 0,0.968 0.807,1.779 1.778,1.779 l 19.457,0 0,6.465 c 0,1.563 -0.971,2.427 -2.319,2.427 l -26.948,0 c -3.34,0 -5.98,-2.64 -5.98,-5.929 l 0,-15.899 c 0,-0.107 0,-0.163 0.054,-0.271 0.377,-2.368 2.426,-4.148 4.904,-4.148 l 52.6,0 0,34.385 C 9.432,-4.202 5.228,0 0,0"
             id="path56"
             style="fill:#e51635;fill-opacity:1;fill-rule:evenodd;stroke:none" /></g><g
           transform="translate(188.3081,123.1367)"
           id="g58"><path
             d="m 0,0 -36.863,0 c -1.778,0 -3.502,-0.861 -4.472,-2.265 l -6.253,-9.107 37.133,0 c 2.318,-0.107 4.204,-2.102 4.204,-4.472 l 0,-17.407 -27.863,0 0,5.012 c 0,0.968 0.808,1.779 1.778,1.779 l 19.455,0 0,6.465 c 0,1.563 -0.969,2.427 -2.317,2.427 l -26.947,0 c -3.341,0 -5.98,-2.64 -5.98,-5.929 l 0,-15.899 c 0,-0.107 0,-0.163 0.053,-0.271 0.377,-2.368 2.424,-4.148 4.904,-4.148 l 52.6,0 0,34.385 C 9.432,-4.202 5.229,0 0,0"
             id="path60"
             style="fill:#e51635;fill-opacity:1;fill-rule:evenodd;stroke:none" /></g><g
           transform="translate(290.4902,188.8735)"
           id="g62"><path
             d="m 0,0 c 0,5.227 -4.259,9.431 -9.486,9.431 l -0.109,0 -21.405,0 c -1.834,0 -2.75,-0.916 -3.72,-2.37 -0.053,-0.054 -6.252,-9.001 -6.252,-9.001 l 20.76,0 c 2.372,-0.109 4.258,-2.049 4.258,-4.473 l 0,-27.971 15.954,0 L 0,-0.108 0,0 z m -56.924,25.383 15.952,0 0,-59.767 -15.952,0 0,59.767 z"
             id="path64"
             style="fill:#656262;fill-opacity:1;fill-rule:evenodd;stroke:none" /></g><g
           transform="translate(189.2935,170.334)"
           id="g66"><path
             d="m 0,0 0.054,0 c 0,-2.479 2.004,-4.473 4.496,-4.473 l 29.805,0.002 0,-11.373 -40.964,0 c -5.199,0 -9.478,4.204 -9.478,9.431 l 0,0.108 0,32.319 0,-6.727 c 0,5.227 4.279,9.432 9.478,9.432 l 40.868,0 -2.515,-6.251 C 31.212,21.15 30.936,20.03 29.726,19.179 28.862,18.57 28.131,18.146 27.019,18.146 l -22.469,0 c -2.492,0 -4.496,-1.994 -4.496,-4.474 L 0,13.672 0,0"
             id="path68"
             style="fill:#656262;fill-opacity:1;fill-rule:evenodd;stroke:none" /></g><g
           transform="translate(117.7144,155.0386)"
           id="g70"><path
             d="m 0,0 34.129,0 c 1.778,0 3.502,0.863 4.473,2.263 l 6.252,9.109 -34.399,0 c -2.316,0.107 -4.204,2.102 -4.204,4.473 l 0,17.407 25.129,0 0,-5.012 c 0,-0.97 -0.808,-1.778 -1.779,-1.778 l -16.719,0 0,-6.468 c 0,-1.562 0.97,-2.424 2.317,-2.424 l 24.211,0 c 3.341,0 5.982,2.639 5.982,5.927 l 0,15.9 c 0,0.107 0,0.16 -0.054,0.268 -0.377,2.372 -2.425,4.15 -4.903,4.15 l -44.025,0 -5.841,0 0,-5.596 0,-28.787 C -9.431,4.204 -5.227,0 0,0"
             id="path72"
             style="fill:#656262;fill-opacity:1;fill-rule:evenodd;stroke:none" /></g></g></g></g></svg>